<svg width="48" height="48" viewBox="0 0 48 48" fill="none" xmlns="http://www.w3.org/2000/svg">
<path d="M45.0258 18.3214C44.9934 18.2842 44.966 18.248 44.9278 18.2117L43.2457 16.5884C44.6408 16.272 46.1426 15.1033 46.1426 13.9042C46.1426 12.5072 44.2038 12.0115 42.5492 12.0115C40.8191 12.0115 40.6183 13.1969 40.5978 14.0345L36.2579 9.85038C35.3762 8.97751 33.7039 8.29077 32.4539 8.29077H24.0015H23.9995H15.5451C14.2961 8.29077 12.6248 8.97751 11.7421 9.85038L7.40323 14.0345C7.3807 13.1969 7.17987 12.0115 5.45176 12.0115C3.79517 12.0115 1.85742 12.5072 1.85742 13.9042C1.85742 15.1033 3.36021 16.272 4.75523 16.5884L3.07317 18.2117C3.03496 18.248 3.00851 18.2842 2.9752 18.3214C1.17558 19.8595 0 22.7122 0 24.7822V30.9335C0 32.4265 0.588771 33.7813 1.54001 34.7913V37.1768C1.54001 38.5718 2.70776 39.7092 4.14393 39.7092H7.29253C8.7287 39.7092 9.89546 38.5738 9.89546 37.1768V36.5665H23.9995H24.0015H38.1045V37.1768C38.1045 38.5738 39.2703 39.7092 40.7085 39.7092H43.8561C45.2932 39.7092 46.459 38.5718 46.459 37.1768V34.7913C47.4112 33.7813 47.999 32.4265 47.999 30.9335V24.7822C48.001 22.7122 46.8254 19.8595 45.0258 18.3214ZM13.336 11.7098C13.9463 11.2013 15.0132 10.8153 15.5451 10.8153H23.9995H24.0015H32.4559C32.9878 10.8153 34.0547 11.2013 34.665 11.7098L40.3558 17.2252H24.0015H23.9995H7.64618L13.336 11.7098ZM1.95245 23.8516C1.95245 22.337 3.13782 21.1076 4.60142 21.1076C6.06404 21.1076 10.8438 23.9133 10.8438 25.4278C10.8438 26.9424 6.06404 26.5916 4.60142 26.5916C3.13782 26.5916 1.95245 25.3671 1.95245 23.8516ZM9.89644 33.8695H9.39192H8.8874L5.89456 33.8744C5.06382 33.6157 4.47799 33.314 4.0636 32.9898C3.85395 32.8261 3.69329 32.6557 3.56789 32.4862C3.44152 32.3148 3.34943 32.1463 3.28967 31.9778C2.9174 30.9256 3.68643 29.9587 3.68643 29.9587H8.79433L12.1996 33.8675L9.89644 33.8695ZM31.3449 33.8714H24.0015H23.9995H16.656C15.1248 33.8714 13.8817 32.6283 13.8817 31.098H23.9995H24.0015H34.1193C34.1193 32.6302 32.8761 33.8714 31.3449 33.8714ZM31.9895 29.2054H24.0015H23.9995H16.0114C14.346 29.2054 12.9941 27.152 12.9941 24.6196H23.9995H24.0015H35.0069C35.0069 27.153 33.655 29.2054 31.9895 29.2054ZM44.7123 31.9797C44.6515 32.1482 44.5595 32.3167 44.4331 32.4872C44.3087 32.6567 44.148 32.8271 43.9374 32.9907C43.524 33.315 42.9372 33.6187 42.1064 33.8754L39.1136 33.8705H38.6091H38.1045H35.7994L39.2066 29.9616H44.3136C44.3136 29.9607 45.0836 30.9256 44.7123 31.9797ZM43.3996 26.5916C41.9379 26.5916 37.1582 26.9404 37.1582 25.4278C37.1582 23.9152 41.9379 21.1076 43.3996 21.1076C44.8632 21.1076 46.0485 22.337 46.0485 23.8516C46.0485 25.3651 44.8632 26.5916 43.3996 26.5916Z" fill="black"/>
</svg>
