<svg width="48" height="48" viewBox="0 0 48 48" fill="none" xmlns="http://www.w3.org/2000/svg">
<g clip-path="url(#clip0_41_20)">
<path d="M42.8538 0.362693C42.3461 -0.130611 41.5345 -0.119392 41.0407 0.388336C39.9834 1.47575 34.6621 7.14746 33.7292 12.0193C33.0344 15.6482 34.3585 19.7096 35.6391 23.6374C36.5407 26.4033 37.3924 29.0158 37.3924 31.0918C37.3924 32.9017 36.622 33.8783 35.8971 33.8783C35.2464 33.8783 34.5611 33.0313 34.5611 31.4123C34.5611 29.4152 34.5678 23.6134 29.9201 22.8433V9.29537C29.9201 8.58731 29.3994 8.09336 28.6913 8.09336H27.0353V6.73109C27.0353 6.02303 26.5145 5.52908 25.8065 5.52908H12.8248C12.1167 5.52908 11.4893 6.02303 11.4893 6.73109V8.09336H10.1003C9.3922 8.09336 8.76475 8.58731 8.76475 9.29537V42.5509H6.09357C5.3855 42.5509 4.75806 43.0448 4.75806 43.7529V46.6377C4.75806 47.3458 5.3855 48 6.09357 48H32.698C33.4061 48 33.9268 47.3458 33.9268 46.6377V43.7529C33.9268 43.0448 33.4061 42.5509 32.698 42.5509H29.9201V25.4678C30.8817 25.8262 31.9968 27.0731 31.9968 31.4125C31.9968 34.8685 34.0183 36.4428 35.8838 36.4428C37.9012 36.4428 39.9501 34.605 39.9501 31.0919C39.9501 28.6087 39.0404 25.8081 38.0737 22.8428C37.4076 20.7997 36.7306 18.7175 36.3683 16.7552C38.4147 16.3141 39.7777 15.3578 40.4219 13.9026C41.665 11.0945 39.5834 7.67555 39.026 6.84071C40.1876 5.1704 41.5629 3.5299 42.8792 2.1758C43.3728 1.66807 43.3616 0.856317 42.8538 0.362693ZM27.0353 21.3956C27.0353 22.1036 26.4612 22.6777 25.7531 22.6777H12.7714C12.0634 22.6777 11.4893 22.1036 11.4893 21.3956V12.2603C11.4893 11.5523 12.0634 10.9782 12.7714 10.9782H25.7531C26.4612 10.9782 27.0353 11.5523 27.0353 12.2603V21.3956ZM38.0767 12.8673C37.8043 13.4795 37.1414 13.9209 36.1038 14.1861C36.1008 13.6032 36.1449 13.0399 36.2478 12.5014C36.4311 11.5444 36.876 10.4536 37.4895 9.3154C38.0197 10.3935 38.5194 11.8722 38.0767 12.8673Z" fill="url(#paint0_linear_41_20)"/>
</g>
<defs>
<linearGradient id="paint0_linear_41_20" x1="4.75806" y1="24" x2="43.2421" y2="24" gradientUnits="userSpaceOnUse">
<stop stop-color="#E33B3C"/>
<stop offset="1" stop-color="#2BC6D1"/>
</linearGradient>
<clipPath id="clip0_41_20">
<rect width="48" height="48" fill="white"/>
</clipPath>
</defs>
</svg>
