<svg width="48" height="48" viewBox="0 0 48 48" fill="none" xmlns="http://www.w3.org/2000/svg">
<g clip-path="url(#clip0_41_38)">
<path d="M24 12.7059C17.7723 12.7059 12.7059 17.7723 12.7059 24C12.7059 30.2276 17.7723 35.2941 24 35.2941C30.2276 35.2941 35.2941 30.2276 35.2941 24C35.2941 17.7723 30.2276 12.7059 24 12.7059ZM21.1765 30.2318L15.943 24.9983L17.9395 23.0018L21.1765 26.2388L28.6488 18.7664L30.6454 20.7629L21.1765 30.2318Z" fill="url(#paint0_linear_41_38)"/>
<path d="M48 28.1547V19.8454L43.2632 19.5668C42.7716 17.4325 41.9185 15.3733 40.7556 13.5142L43.9083 9.96734L38.0327 4.09167L34.4857 7.24442C32.6264 6.08141 30.5676 5.22842 28.4332 4.73685L28.1547 0H19.8454L19.5668 4.73685C17.4324 5.22842 15.3735 6.08141 13.5142 7.24442L9.96734 4.09167L4.09167 9.96734L7.24442 13.5142C6.08141 15.3735 5.22842 17.4323 4.73685 19.5668L0 19.8453V28.1546L4.73685 28.4333C5.22842 30.5677 6.08141 32.6265 7.24442 34.4858L4.09167 38.0328L9.96734 43.9084L13.5143 40.7557C15.3733 41.9185 17.4324 42.7717 19.5668 43.2632L19.8454 48.0001H28.1547L28.4334 43.2632C30.5677 42.7717 32.6269 41.9186 34.4859 40.7557L38.0328 43.9084L43.9085 38.0328L40.7558 34.4858C41.9186 32.6268 42.7718 30.5676 43.2633 28.4333L48 28.1547ZM24 38.1176C16.2155 38.1176 9.88235 31.7845 9.88235 24C9.88235 16.2155 16.2155 9.88235 24 9.88235C31.7845 9.88235 38.1176 16.2155 38.1176 24C38.1176 31.7845 31.7845 38.1176 24 38.1176Z" fill="url(#paint1_linear_41_38)"/>
</g>
<defs>
<linearGradient id="paint0_linear_41_38" x1="12.7059" y1="24" x2="35.2941" y2="24" gradientUnits="userSpaceOnUse">
<stop stop-color="#E33B3C"/>
<stop offset="1" stop-color="#2BC6D1"/>
</linearGradient>
<linearGradient id="paint1_linear_41_38" x1="-1.07288e-07" y1="24.0001" x2="48" y2="24.0001" gradientUnits="userSpaceOnUse">
<stop stop-color="#E33B3C"/>
<stop offset="1" stop-color="#2BC6D1"/>
</linearGradient>
<clipPath id="clip0_41_38">
<rect width="48" height="48" fill="white"/>
</clipPath>
</defs>
</svg>
